<svg fill="#000000" xmlns="http://www.w3.org/2000/svg"  viewBox="0 0 48 48" width="24px" height="24px"><path d="M41,9.276V35.5c0,3.032-2.467,5.5-5.5,5.5H9.276c0.621,1.742,2.271,3,4.224,3h22c4.687,0,8.5-3.813,8.5-8.5v-22	C44,11.547,42.742,9.898,41,9.276z"/><path fill="none" stroke="#000000" stroke-miterlimit="10" stroke-width="3" d="M34.5,37.5h-26c-1.657,0-3-1.343-3-3v-26	c0-1.657,1.343-3,3-3h26c1.657,0,3,1.343,3,3v26C37.5,36.157,36.157,37.5,34.5,37.5z"/><polyline fill="none" stroke="#000000" stroke-linecap="round" stroke-linejoin="round" stroke-miterlimit="10" stroke-width="3" points="15.5,21.5 19.5,25.5 28.5,16.5"/></svg>